<!-- Generated by IcoMoon.io -->
<svg version="1.1" xmlns="http://www.w3.org/2000/svg" width="24" height="24" viewBox="0 0 24 24">
<title>arrow-maximise</title>
<path d="M15 4c-0.553 0-1 0.448-1 1s0.447 1 1 1h1.586l-3.293 3.293c-0.391 0.391-0.391 1.023 0 1.414 0.195 0.195 0.451 0.293 0.707 0.293s0.512-0.098 0.707-0.293l3.293-3.293v1.586c0 0.552 0.447 1 1 1s1-0.448 1-1v-5h-5z"></path>
<path d="M9.293 13.293l-3.293 3.293v-1.586c0-0.552-0.447-1-1-1s-1 0.448-1 1v4.999h0.996c0.008 0 4.004 0.001 4.004 0.001 0.552 0 1-0.448 1-1s-0.447-1-1-1h-1.586l3.293-3.292c0.391-0.391 0.391-1.023 0-1.414s-1.023-0.392-1.414-0.001z"></path>
<path d="M7 12c0.552 0 1-0.448 1-1v-3h3c0.553 0 1-0.448 1-1s-0.447-1-1-1h-4.999l-0.001 5c0 0.552 0.447 1 1 1z"></path>
<path d="M17 12c-0.553 0-1 0.448-1 1v3h-3c-0.553 0-1 0.448-1 1s0.447 1 1 1h5v-5c0-0.552-0.447-1-1-1z"></path>
</svg>
