<!-- Generated by IcoMoon.io -->
<svg version="1.1" xmlns="http://www.w3.org/2000/svg" width="24" height="24" viewBox="0 0 24 24">
<title>battery-mid</title>
<path d="M9 16c-0.552 0-1-0.447-1-1v-4c0-0.553 0.448-1 1-1s1 0.447 1 1v4c0 0.553-0.448 1-1 1z"></path>
<path d="M6 16c-0.552 0-1-0.447-1-1v-4c0-0.553 0.448-1 1-1s1 0.447 1 1v4c0 0.553-0.448 1-1 1z"></path>
<path d="M19 10c0-1.654-1.346-3-3-3h-11c-1.654 0-3 1.346-3 3v6c0 1.654 1.346 3 3 3h11c1.654 0 3-1.346 3-3 1.104 0 2-0.896 2-2v-2c0-1.104-0.896-2-2-2zM17 16c0 0.552-0.449 1-1 1h-11c-0.551 0-1-0.448-1-1v-6c0-0.552 0.449-1 1-1h11c0.551 0 1 0.448 1 1v6z"></path>
</svg>
