<!-- Generated by IcoMoon.io -->
<svg version="1.1" xmlns="http://www.w3.org/2000/svg" width="24" height="24" viewBox="0 0 24 24">
<title>business-card</title>
<path d="M20 20h-16c-1.654 0-3-1.346-3-3v-10c0-1.654 1.346-3 3-3h16c1.654 0 3 1.346 3 3v10c0 1.654-1.346 3-3 3zM4 6c-0.551 0-1 0.449-1 1v10c0 0.551 0.449 1 1 1h16c0.551 0 1-0.449 1-1v-10c0-0.551-0.449-1-1-1h-16z"></path>
<path d="M10 15h-4c-0.553 0-1-0.448-1-1s0.447-1 1-1h4c0.553 0 1 0.448 1 1s-0.447 1-1 1z"></path>
<path d="M10 11h-4c-0.553 0-1-0.448-1-1s0.447-1 1-1h4c0.553 0 1 0.448 1 1s-0.447 1-1 1z"></path>
<path d="M18 10.5c0 1.105-0.895 2-2 2s-2-0.895-2-2c0-1.105 0.895-2 2-2s2 0.895 2 2z"></path>
<path d="M16 13.356c-1.562 0-2.5 0.715-2.5 1.429 0 0.357 0.938 0.715 2.5 0.715 1.466 0 2.5-0.357 2.5-0.715 0-0.714-0.98-1.429-2.5-1.429z"></path>
</svg>
