<!-- Generated by IcoMoon.io -->
<svg version="1.1" xmlns="http://www.w3.org/2000/svg" width="24" height="24" viewBox="0 0 24 24">
<title>compass</title>
<path d="M12 5c3.859 0.001 7 3.142 7 7.001s-3.141 6.998-7 6.999c-3.859 0-7-3.14-7-6.999s3.141-7 7-7.001M12 3c-4.971 0.001-9 4.030-9 9.001 0 4.97 4.029 8.999 9 8.999 4.97-0.001 9-4.030 9-8.999 0-4.971-4.029-9-9-9.001z"></path>
<path d="M16.182 7.819c-0.129-0.128-0.315-0.178-0.491-0.127l-5.951 1.706c-0.166 0.048-0.295 0.177-0.342 0.343l-1.707 5.951c-0.051 0.175-0.002 0.363 0.127 0.491 0.095 0.095 0.223 0.146 0.354 0.146 0.045 0 0.092-0.006 0.138-0.020l5.95-1.708c0.165-0.047 0.295-0.177 0.342-0.343l1.707-5.949c0.050-0.173 0.002-0.361-0.127-0.49zM8.9 15.101l1.383-4.817 3.434 3.435-4.817 1.382z"></path>
</svg>
