<!-- Generated by IcoMoon.io -->
<svg version="1.1" xmlns="http://www.w3.org/2000/svg" width="24" height="24" viewBox="0 0 24 24">
<title>equals-outline</title>
<path d="M18 12h-12c-1.654 0-3-1.346-3-3s1.346-3 3-3h12c1.654 0 3 1.346 3 3s-1.346 3-3 3zM6 8c-0.552 0-1 0.449-1 1s0.448 1 1 1h12c0.552 0 1-0.449 1-1s-0.448-1-1-1h-12z"></path>
<path d="M18 19h-12c-1.654 0-3-1.346-3-3s1.346-3 3-3h12c1.654 0 3 1.346 3 3s-1.346 3-3 3zM6 15c-0.552 0-1 0.449-1 1s0.448 1 1 1h12c0.552 0 1-0.449 1-1s-0.448-1-1-1h-12z"></path>
</svg>
