<!-- Generated by IcoMoon.io -->
<svg version="1.1" xmlns="http://www.w3.org/2000/svg" width="24" height="24" viewBox="0 0 24 24">
<title>media-pause-outline</title>
<path d="M8 20c-1.654 0-3-1.346-3-3v-9c0-1.654 1.346-3 3-3s3 1.346 3 3v9c0 1.654-1.346 3-3 3zM8 7c-0.552 0-1 0.449-1 1v9c0 0.551 0.448 1 1 1s1-0.449 1-1v-9c0-0.551-0.448-1-1-1z"></path>
<path d="M15 20c-1.654 0-3-1.346-3-3v-9c0-1.654 1.346-3 3-3s3 1.346 3 3v9c0 1.654-1.346 3-3 3zM15 7c-0.552 0-1 0.449-1 1v9c0 0.551 0.448 1 1 1s1-0.449 1-1v-9c0-0.551-0.448-1-1-1z"></path>
</svg>
