<!-- Generated by IcoMoon.io -->
<svg version="1.1" xmlns="http://www.w3.org/2000/svg" width="24" height="24" viewBox="0 0 24 24">
<title>news</title>
<path d="M21 4h-18c-1.104 0-2 0.896-2 2v12c0 1.104 0.896 2 2 2h18c1.104 0 2-0.896 2-2v-12c0-1.104-0.896-2-2-2zM3 6h8v12h-8v-12zM21 18h-9v-12h9.003l-0.003 12z"></path>
<path d="M20 13.5c0-0.275-0.225-0.5-0.5-0.5h-1c-0.275 0-0.5 0.225-0.5 0.5v3c0 0.275 0.225 0.5 0.5 0.5h1c0.275 0 0.5-0.225 0.5-0.5v-3z"></path>
<path d="M17 7.5c0-0.275-0.225-0.5-0.5-0.5h-3c-0.275 0-0.5 0.225-0.5 0.5v5c0 0.275 0.225 0.5 0.5 0.5h3c0.275 0 0.5-0.225 0.5-0.5v-5z"></path>
<path d="M18.5 10h1c0.275 0 0.5-0.225 0.5-0.5s-0.225-0.5-0.5-0.5h-1c-0.275 0-0.5 0.225-0.5 0.5s0.225 0.5 0.5 0.5z"></path>
<path d="M18.5 12h1c0.275 0 0.5-0.225 0.5-0.5s-0.225-0.5-0.5-0.5h-1c-0.275 0-0.5 0.225-0.5 0.5s0.225 0.5 0.5 0.5z"></path>
<path d="M13.5 15h3c0.275 0 0.5-0.225 0.5-0.5s-0.225-0.5-0.5-0.5h-3c-0.275 0-0.5 0.225-0.5 0.5s0.225 0.5 0.5 0.5z"></path>
<path d="M16.5 16h-3c-0.275 0-0.5 0.225-0.5 0.5s0.225 0.5 0.5 0.5h3c0.275 0 0.5-0.225 0.5-0.5s-0.225-0.5-0.5-0.5z"></path>
<path d="M18.5 8h1c0.275 0 0.5-0.225 0.5-0.5s-0.225-0.5-0.5-0.5h-1c-0.275 0-0.5 0.225-0.5 0.5s0.225 0.5 0.5 0.5z"></path>
<path d="M10 7.5c0-0.275-0.225-0.5-0.5-0.5h-5c-0.275 0-0.5 0.225-0.5 0.5v3c0 0.275 0.225 0.5 0.5 0.5h5c0.275 0 0.5-0.225 0.5-0.5v-3z"></path>
<path d="M9.501 14h-5c-0.274 0-0.5 0.225-0.5 0.5s0.226 0.5 0.5 0.5h5c0.274 0 0.499-0.225 0.499-0.5s-0.225-0.5-0.499-0.5z"></path>
<path d="M9.501 12h-5c-0.274 0-0.5 0.225-0.5 0.5s0.226 0.5 0.5 0.5h5c0.274 0 0.499-0.225 0.499-0.5s-0.225-0.5-0.499-0.5z"></path>
<path d="M9.501 16h-5c-0.274 0-0.5 0.225-0.5 0.5s0.226 0.5 0.5 0.5h5c0.274 0 0.499-0.225 0.499-0.5s-0.225-0.5-0.499-0.5z"></path>
</svg>
