<!-- Generated by IcoMoon.io -->
<svg version="1.1" xmlns="http://www.w3.org/2000/svg" width="24" height="24" viewBox="0 0 24 24">
<title>pi</title>
<path d="M18.707 8.535c-0.391-0.391-1.023-0.391-1.414 0-1.264 1.264-3.321 1.264-4.586 0-2.045-2.044-5.371-2.042-7.414 0-0.391 0.391-0.391 1.023 0 1.414s1.023 0.391 1.414 0c0.374-0.374 0.82-0.624 1.293-0.776v7.827c0 0.553 0.447 1 1 1s1-0.447 1-1v-7.826c0.472 0.152 0.919 0.401 1.293 0.775 0.768 0.767 1.715 1.245 2.707 1.437v5.614c0 0.553 0.447 1 1 1s1-0.447 1-1v-5.614c0.992-0.191 1.939-0.67 2.707-1.437 0.391-0.39 0.391-1.023 0-1.414z"></path>
</svg>
