<!-- Generated by IcoMoon.io -->
<svg version="1.1" xmlns="http://www.w3.org/2000/svg" width="24" height="24" viewBox="0 0 24 24">
<title>point-of-interest</title>
<path d="M16.5 11c1.93 0 3.5-1.57 3.5-3.5s-1.57-3.5-3.5-3.5-3.5 1.57-3.5 3.5v1.5h-2v-1.5c0-1.93-1.57-3.5-3.5-3.5s-3.5 1.57-3.5 3.5 1.57 3.5 3.5 3.5h1.5v2h-1.5c-1.93 0-3.5 1.57-3.5 3.5s1.57 3.5 3.5 3.5 3.5-1.57 3.5-3.5v-1.5h2v1.5c0 1.93 1.57 3.5 3.5 3.5s3.5-1.57 3.5-3.5-1.57-3.5-3.5-3.5h-1.5v-2h1.5zM15 7.5c0-0.828 0.673-1.5 1.5-1.5s1.5 0.672 1.5 1.5c0 0.826-0.673 1.5-1.5 1.5h-1.5v-1.5zM9 16.5c0 0.826-0.673 1.5-1.5 1.5s-1.5-0.674-1.5-1.5c0-0.828 0.673-1.5 1.5-1.5h1.5v1.5zM9 9h-1.5c-0.827 0-1.5-0.674-1.5-1.5 0-0.828 0.673-1.5 1.5-1.5s1.5 0.672 1.5 1.5v1.5zM13 13h-2v-2h2v2zM16.5 15c0.827 0 1.5 0.672 1.5 1.5 0 0.826-0.673 1.5-1.5 1.5s-1.5-0.674-1.5-1.5v-1.5h1.5z"></path>
</svg>
