<!-- Generated by IcoMoon.io -->
<svg version="1.1" xmlns="http://www.w3.org/2000/svg" width="24" height="24" viewBox="0 0 24 24">
<title>shopping-bag</title>
<path d="M17 4h-10c-1.654 0-3 1.346-3 3v11c0 1.654 1.346 3 3 3h10c1.654 0 3-1.346 3-3v-11c0-1.654-1.346-3-3-3zM18 18c0 0.551-0.448 1-1 1h-10c-0.552 0-1-0.449-1-1v-7.28c0.296 0.174 0.635 0.28 1 0.28h1.5c0 1.93 1.57 3.5 3.5 3.5s3.5-1.57 3.5-3.5h1.5c0.365 0 0.704-0.106 1-0.279v7.279zM9.5 11h5c0 1.378-1.121 2.5-2.5 2.5s-2.5-1.122-2.5-2.5zM18 9c0 0.551-0.448 1-1 1h-10c-0.552 0-1-0.449-1-1v-2c0-0.551 0.448-1 1-1h10c0.552 0 1 0.449 1 1v2z"></path>
</svg>
