<!-- Generated by IcoMoon.io -->
<svg version="1.1" xmlns="http://www.w3.org/2000/svg" width="24" height="24" viewBox="0 0 24 24">
<title>sort-alphabetically</title>
<path d="M10.895 16.553l-4-8c-0.339-0.678-1.45-0.678-1.789 0l-4 8c-0.247 0.494-0.047 1.095 0.447 1.342 0.495 0.248 1.095 0.046 1.342-0.447l0.723-1.448h4.764l0.724 1.447c0.175 0.351 0.528 0.553 0.895 0.553 0.15 0 0.303-0.034 0.446-0.105 0.494-0.248 0.695-0.848 0.448-1.342zM4.618 14l1.382-2.764 1.382 2.764h-2.764z"></path>
<path d="M22 18h-6c-0.379 0-0.725-0.214-0.895-0.553s-0.132-0.744 0.095-1.047l4.8-6.4h-4c-0.552 0-1-0.448-1-1s0.448-1 1-1h6c0.379 0 0.725 0.214 0.895 0.553s0.132 0.744-0.095 1.047l-4.8 6.4h4c0.552 0 1 0.448 1 1s-0.448 1-1 1z"></path>
<path d="M14 14h-2c-0.552 0-1-0.448-1-1s0.448-1 1-1h2c0.552 0 1 0.448 1 1s-0.448 1-1 1z"></path>
</svg>
