<!-- Generated by IcoMoon.io -->
<svg version="1.1" xmlns="http://www.w3.org/2000/svg" width="24" height="24" viewBox="0 0 24 24">
<title>time</title>
<path d="M16 13c0-0.55-0.45-1-1-1h-3c-0.55 0-1 0.45-1 1s0.45 1 1 1h3c0.55 0 1-0.45 1-1z"></path>
<path d="M12 6c3.859 0 7 3.141 7 7s-3.141 7-7 7-7-3.141-7-7 3.141-7 7-7M12 4c-4.971 0-9 4.029-9 9s4.029 9 9 9 9-4.029 9-9-4.029-9-9-9z"></path>
<path d="M13 10c0-0.55-0.45-1-1-1s-1 0.45-1 1v3c0 0.55 0.45 1 1 1s1-0.45 1-1v-3z"></path>
<path d="M12 8c2.757 0 5 2.243 5 5s-2.243 5-5 5-5-2.243-5-5 2.243-5 5-5M12 7c-3.312 0-6 2.686-6 6 0 3.312 2.688 6 6 6s6-2.688 6-6c0-3.314-2.688-6-6-6z"></path>
</svg>
